<svg xmlns="http://www.w3.org/2000/svg" viewBox="0 0 366 366"><g id="Calque_2" data-name="Calque 2"><g id="Calque_1-2" data-name="Calque 1"><circle cx="183" cy="183" r="183" fill="#9ec1bb" /><path fill="transparent" d="M296.72,159.79l-16.4,17.33-17.56-16L298,123.43l57.87,54.63L297,234.74l-77.17-70.28c6.39-7.18,12.55-14.11,19.11-21.47l59.68,54.6,17.14-17.21Z"/><path d="M9.36,183.51l56.71-56.88,79.44,71.08-19.87,20.74L66.47,165.32c-6.3,6.29-12.29,12.26-18.57,18.54l20.42,18.83,15.52-17.51L101.53,201,66.76,239.73Z"/><path d="M148.74,244.25,168.35,223l58.76,52.22L246.84,258l-19.07-17,17.29-19.56,39.79,35.18-57.39,60.76Z"/><path d="M161.38,184.93l21,18.47c-18.63,20.35-37.11,40.54-56,61.24l18,18.53,19.71-20.36,19.59,17.3L146,320,86.3,264.66Z"/><path d="M79.69,104.28l57.06-57.19,79.68,71.05L197.3,140,137.2,86.08l-18.84,17.85,18.91,17.12c-6,6.45-11.86,12.64-18,19.16Z"/><path d="M237,98.59,218.16,81,200.3,100.13,180.73,82.91,216.11,43.6l60.72,54.17c-24.08,26.5-48,52.79-72.27,79.49l-21.15-17.84Z"/><path d="M221.81,195.74l-19.76,21.1-58.68-51.38,18.7-21Z"/><path d="M105.75,158.83,154.85,106l20.91,18.82C159.82,142.39,144,159.9,127.52,178,120.32,171.69,113.22,165.42,105.75,158.83Z"/><path d="M210.13,256.13l-21.74-19.49L237,184c7,6.44,13.53,12.52,20.53,19Z"/></g></g></svg>