<svg xmlns="http://www.w3.org/2000/svg" viewBox="0 0 285.51 286"><g id="Calque_2" data-name="Calque 2"><g id="Calque_1-2" data-name="Calque 1"><path d="M109.32,286h-1.11c-2-.66-4-1.34-6-2a140.11,140.11,0,0,1-60.61-38.09A149.87,149.87,0,0,1,4.22,177.32a139.61,139.61,0,0,1-1.18-63C9.84,82.62,25.31,55.66,50.34,35,93.46-.51,142.15-9.69,194.27,10.63c49.32,19.23,78.79,56.49,89.07,108.6,1,5.16,1.46,10.44,2.17,15.67v15c-.16,1-.4,2-.46,3a141.82,141.82,0,0,1-8.45,40.15,150.66,150.66,0,0,1-37.35,57.65,135.68,135.68,0,0,1-43.4,28.65c-6.07,2.45-12.33,4.42-18.51,6.61h-1.11c0-19.42-.06-38.84,0-58.26,0-8.27-1.88-15.8-7.21-22.3-1.08-1.34-2-2.81-2.81-3.95C173.64,199.3,181,197.63,188,195c24.91-9.43,40.2-32,40-58.67-.1-12.55-4.3-23.89-11.3-34.11-2.91-4.25-4.37-8.15-2.16-13.06.55-1.21.43-2.73.56-4.12a55.59,55.59,0,0,0-3.64-25.48c-9.18-.37-16.93,3.1-24.45,7.29-3.25,1.8-6.53,3.55-9.66,5.55a7.33,7.33,0,0,1-6.31.86,107,107,0,0,0-54.27-.45,12.25,12.25,0,0,1-10.42-1.57c-9.78-6.07-19.7-12-32.05-11.82C70,70.34,68.82,81.66,72.08,93.26a5.58,5.58,0,0,1-1,5.38c-12.83,17.48-16.31,36.91-10.32,57.56,6.15,21.14,21.22,33.88,41.7,40.58,5.49,1.8,11.19,3,16.84,4.44a3.94,3.94,0,0,1-.32.75c-4,5.49-8,11-8.91,18a2,2,0,0,1-1.15,1.33c-6.56,2.29-13.06,2.67-18.63-2.2-2.47-2.16-4.08-5.25-6.3-7.73-3.64-4-7.1-8.37-11.28-11.8a24.52,24.52,0,0,0-18.36-5.44c.51,5.61,1,11,1.48,16.47a13.25,13.25,0,0,1,9.94,4.84,101.88,101.88,0,0,1,6.4,8.38c7.57,11,17.87,16.44,31.27,15.79,1.89-.09,3.78-.45,5.87-.71Z" fill="#fff"/><path d="M109.32,286V238.91c-2.09.26-4,.62-5.87.71-13.4.65-23.7-4.82-31.27-15.79a101.88,101.88,0,0,0-6.4-8.38,13.25,13.25,0,0,0-9.94-4.84c-.49-5.44-1-10.86-1.48-16.47a24.52,24.52,0,0,1,18.36,5.44c4.18,3.43,7.64,7.75,11.28,11.8,2.22,2.48,3.83,5.57,6.3,7.73,5.57,4.87,12.07,4.49,18.63,2.2a2,2,0,0,0,1.15-1.33c.89-7,4.89-12.52,8.91-18a3.94,3.94,0,0,0,.32-.75c-5.65-1.47-11.35-2.64-16.84-4.44-20.48-6.7-35.55-19.44-41.7-40.58-6-20.65-2.51-40.08,10.32-57.56a5.58,5.58,0,0,0,1-5.38C68.82,81.66,70,70.34,74.24,59.4c12.35-.22,22.27,5.75,32.05,11.82a12.25,12.25,0,0,0,10.42,1.57,107,107,0,0,1,54.27.45,7.33,7.33,0,0,0,6.31-.86c3.13-2,6.41-3.75,9.66-5.55,7.52-4.19,15.27-7.66,24.45-7.29A55.59,55.59,0,0,1,215,85c-.13,1.39,0,2.91-.56,4.12-2.21,4.91-.75,8.81,2.16,13.06,7,10.22,11.2,21.56,11.3,34.11.21,26.64-15.08,49.24-40,58.67-7,2.65-14.31,4.32-21.72,6.51.81,1.14,1.73,2.61,2.81,3.95,5.33,6.5,7.25,14,7.21,22.3-.08,19.42,0,38.84,0,58.26Z"/></g></g></svg>