<svg xmlns="http://www.w3.org/2000/svg" viewBox="0 0 172.46 173.11"><g id="Calque_2" data-name="Calque 2"><g id="Calque_1-2" data-name="Calque 1"><g id="logo"><path d="M66.9,2.85C52.86,4.38,1.56,28.63,0,86.58c-1.11,42,35.88,86.82,86.28,86.53,48.45-.27,88.78-42.63,86-91.38-3.83-67.9-70-86-94.71-80.92l-.76,67.13c-3.32,3.58-10.72,6.38-11,18.38-.18,8.42,7.66,19.15,16.08,20.17l.26,19.65c-5.62,2.3-36.5-11-36.25-41.35.05-6,2.55-18.63,9.7-24.25,1.43-1.12.68-4.3-.51-5.1-1.6-1.09-4.85.25-7.15,4.08C42.77,68.25,40.36,75,40.36,81.47c0,.51-21,1.31-20.94.26.77-20.17,14.81-43.65,36.76-55.39,1.51-.81-1.14-5.34-3.06-4.6-14.55,5.62-40,27.85-40.33,62-.51,50,38.75,73.45,60.24,74.79,4.08.26,5.52-5.5,1.28-6.38-33.19-6.89-54.38-32.67-54.38-63.56,0-.51,19.66-.26,19.66-.26,4.85,35,28.33,44.93,46.46,45.19,26,.36,45.18-23.49,45.18-36.51,0-2.6-3.83-2.29-5.62-1.27-2.57,1.47,3.07,5.36-14.55,22.46-6.92,6.73-24.44,8.42-22.46,8.42.77,0,.77-19.65.77-19.65,16.08-6.13,16.75-13.89,16.84-22,.07-5.7-2.55-10.73-8.93-16.09-.81-.67-1.21-20.75-.51-20.93,1-.25,8.93,1,15.31,7.15,14.72,14.13,12,20.18,13.53,20.42,4.85.77,4.85-2,4.85-2C132.18,69.23,122.81,47,97,41.14c-.55-.13-1.11-20.5.26-20.42C118.21,22,153.69,48,152.93,85.05c-.45,21.43-9.45,57.43-55.14,67.13-5.92,1.26-1.25,6.44-.51,6.38,12.51-1,61.77-16.34,62.28-73,.43-47.25-49.52-74-68.66-72-1.63.18-.51,58.71-.51,58.71,3.43,3.57,9.63,6.87,9.7,12.77s-3.83,14-12.77,14.8-15-7.09-14.8-13.27c.25-8.43,5.87-11.49,10.72-14l.26-65.6c29.86-2.3,81.42,21.69,82.45,78.11,1,55.18-45.44,80.4-76.33,80.91l.26-19.14c-7.41-1.28,52.07,3.57,56.67-61.77,2-29.25-27.32-55.14-41.61-55.14-1.81,0-2.82,5.61-.77,6.38C132,46.76,138.89,69.73,139.65,82l-21.18-.51c.88-6.32-5.74-17.82-10.47-20.67-3.49-2.11-5.4,3.6-5.36,3.57s10.26,9.06,10.47,19.91c.26,13.88-7.15,22.21-15.06,26.8-4.78,2.78-2.4,7,.25,6.13,6.13-2,19.26-7.38,21.19-29.1,0-.51,19.76,0,19.91.51,2.81,10.72-11.23,49.52-52.33,51.82C70,141.39,42.91,132.27,32.7,96c-.65-2.32-4.3-.41-4.85.77-1.79,3.83,6.38,27.57,25.52,40.07,13.64,8.91,18.92,7.41,29.1,10,1,.25.26,18.89.26,18.89-35-.77-75.3-30.63-76.07-80.15C6,40.63,50.82,12,62.56,11.28c1.63-.11,1.35,18.76.51,19.14-23,10.47-36,33.69-35.22,42.37.08.93,2.1,2.85,3.57,2.81s2.76-2.57,2.81-3.32C35,60.8,54.4,39.61,62.82,38.08c0,0,1.19,22.87,0,24-8.17,7.66-9.76,15.48-10.21,24.76-.79,16.42,15.06,31.66,21.44,30.38a4.27,4.27,0,0,0,2.55-3.83,3.29,3.29,0,0,0-1-2c-2.47-2.6-14-1.79-16.33-25.53C58.58,79,65.37,69,69.71,65.14c.81-.72,0-48.76,0-60.5C69.71,2.69,68,2.73,66.9,2.85Z" fill="#0a2f2a"/></g></g></g></svg>