<svg xmlns="http://www.w3.org/2000/svg" viewBox="0 0 340.3 340.35"><g id="Calque_2" data-name="Calque 2"><g id="Calque_1-2" data-name="Calque 1"><path d="M340.3,159.53v20.61c-.19,1.06-.4,2.13-.57,3.2-1.38,8.84-2.16,17.83-4.23,26.51-24.37,102-134.34,157.69-231.15,117.22A170.08,170.08,0,0,1,2.52,141C14.45,72.07,67.82,17.1,136.21,3.46c7.9-1.57,16-2.33,23.95-3.46h20.6a18,18,0,0,0,2.56.54c25.57,1.93,49.59,9.07,71.61,22.17,45.26,26.91,73,66.29,82.76,118.13C338.85,147,339.44,153.3,340.3,159.53ZM144.2,140.3V259.6h36.65v-4.06c0-18.61,0-37.22,0-55.83,0-6.65.54-13.29,3.61-19.4,4-8,11.83-11.5,22.54-10.18,7.48.92,12.57,5.89,14.2,14.55a75.69,75.69,0,0,1,1.29,13.52c.15,19.27.08,38.54.08,57.82v3.53h37c.07-1.1.17-2,.17-2.83,0-21.26.23-42.53-.13-63.79A143.89,143.89,0,0,0,257,167.56c-2.78-14-10.57-24.42-25-28.17a67.23,67.23,0,0,0-18.36-2.13c-13.87.34-25.25,6-33,18a9,9,0,0,1-1.4,1.19V140.3Zm-60.42,0V259.57h36.63V140.31Zm18.13-16.56a21.6,21.6,0,1,0-21.53-21.51A21.62,21.62,0,0,0,101.91,123.75Z" fill="#fff"/><path d="M144.2,140.3h35.14v16.1a9,9,0,0,0,1.4-1.19c7.71-12,19.09-17.61,33-18a67.23,67.23,0,0,1,18.36,2.13c14.39,3.75,22.18,14.16,25,28.17a143.89,143.89,0,0,1,2.59,25.37c.36,21.26.13,42.53.13,63.79,0,.87-.1,1.73-.17,2.83h-37V256c0-19.28.07-38.55-.08-57.82a75.69,75.69,0,0,0-1.29-13.52c-1.63-8.66-6.72-13.63-14.2-14.55-10.71-1.32-18.55,2.2-22.54,10.18-3.07,6.11-3.58,12.75-3.61,19.4-.09,18.61,0,37.22,0,55.83v4.06H144.2Z" fill="#fff"/><path d="M83.78,140.31h36.63V259.57H83.78Z" fill="#fff"/><path d="M101.91,123.75a21.6,21.6,0,0,1-.07-43.19,21.6,21.6,0,1,1,.07,43.19Z" fill="#fff"/></g></g></svg>