<svg xmlns="http://www.w3.org/2000/svg" viewBox="0 0 391.26 293.37"><g id="Calque_2" data-name="Calque 2"><g id="Calque_1-2" data-name="Calque 1"><path d="M391.26,215.51c-1.69,8.28-4.94,15.65-11.64,21.24a32.43,32.43,0,0,1-45.57-3.56c-.65-.76-1.31-1.5-2.08-2.39a42.83,42.83,0,0,1-25.21,13.43c-15.24,2.36-32-5.88-40.36-20-8.11-13.79-6.91-32,2.26-44.29,14-18.7,39.53-22.33,57.84-8.1a4.24,4.24,0,0,0,3.54.6c6.7-2.75,12.17.57,12.28,7.86.14,9.93,0,19.87.07,29.8a25.42,25.42,0,0,0,.76,6.4,16,16,0,0,0,16.37,11.68c8-.61,14.23-6,15.06-13.74,4.67-43.69-24.51-77.22-61.72-83-39.16-6.09-74.64,19.8-82.9,56.72-9.69,43.31,22.32,86,66.66,88.71a72.28,72.28,0,0,0,38-7.71c1.25-.64,2.51-1.24,3.8-1.77,4.8-2,9.1-.6,11.11,3.48a7.88,7.88,0,0,1-3.93,10.94c-6.75,3.2-13.59,6.53-20.76,8.47a89.57,89.57,0,0,1-111.17-69.2c-9.91-49.83,24.3-98.37,74.52-105.75a89.65,89.65,0,0,1,101.28,70.62c.67,3.23,1.19,6.48,1.78,9.72Zm-114-11.87A24.39,24.39,0,1,0,326,204c.19-13.32-11-24.52-24.47-24.5A24.31,24.31,0,0,0,277.26,203.64Z" fill="#fff"/><path d="M110.44,228.3H35.19c-7.93,0-15.39-1.63-21.87-6.54C4.11,214.78,0,205.34,0,194Q0,121,0,48c0-4,.84-7.43,4.71-9.23s7.05-.38,10.15,2.15Q75.4,90.29,136,139.55c11.74,9.56,25.94,9.63,37.73,0q60.3-49,120.57-98.1a25,25,0,0,1,3.05-2.28c5.31-3.12,12,0,12.14,6.11.3,14.88.23,29.78,0,44.68-.06,5-3.49,7.66-9.39,7.85-12.69.4-25.07,2.44-36.85,7.28-32.57,13.36-53.93,36.93-63.77,70.75a100.87,100.87,0,0,0-3,40.84c1,8.09-2.21,11.56-10.44,11.56Q148.26,228.33,110.44,228.3Z" fill="#fff"/><path d="M154.92,0q60.17,0,120.33,0c6.49,0,12.63,1.2,18.26,4.55,7.21,4.3,7.71,10.26,1.24,15.53q-30.5,24.85-61,49.66-34.22,27.85-68.42,55.69c-8.07,6.57-12.6,6.66-20.56.19Q80.44,73.34,16.17,21c-.89-.72-1.8-1.42-2.63-2.21-4.36-4.14-3.87-10,1.14-13.31C20.71,1.51,27.4,0,34.59,0Q94.76.08,154.92,0Z" fill="#fff"/></g></g></svg>