<svg xmlns="http://www.w3.org/2000/svg" viewBox="0 0 1380.98 389.57"><g id="Calque_2" data-name="Calque 2"><g id="Calque_1-2" data-name="Calque 1"><g id="Logo"><path d="M125.84,82C116.59,83.37,82.53,107.43,80.7,166c-1.33,42.48,22.34,88.14,55.48,88.31C168,254.5,195.12,212,194,162.7,192.45,94,149.26,75.05,132.91,80l-1.45,67.89c-2.23,3.58-7.14,6.35-7.48,18.49-.23,8.51,4.77,19.43,10.29,20.54l-.11,19.88c-3.73,2.27-23.84-11.44-23.24-42.16.12-6,1.94-18.82,6.72-24.43,1-1.13.51-4.35-.26-5.17-1-1.11-3.2.21-4.76,4.06-3.57,8.79-5.25,15.64-5.34,22.14,0,.51-13.8,1.12-13.76.06.79-20.39,10.35-44,24.94-55.68,1-.81-.68-5.41-1.95-4.68-9.64,5.55-26.67,27.8-27.38,62.37-1,50.59,24.42,74.64,38.53,76.2,2.68.29,3.7-5.52.93-6.45-21.71-7.27-35.27-33.54-34.84-64.78,0-.52,12.93-.08,12.93-.08,2.69,35.41,18,45.7,29.89,46.12,17.1.62,30-23.33,30.21-36.5,0-2.63-2.48-2.36-3.67-1.34-1.71,1.46,1.93,5.45-9.88,22.58-4.65,6.74-16.19,8.3-14.89,8.32.51,0,.79-19.87.79-19.87,10.65-6.05,11.2-13.89,11.38-22.05.12-5.76-1.53-10.87-5.64-16.35-.52-.69-.51-21,0-21.18.67-.24,5.85,1.12,10,7.37,9.47,14.43,7.61,20.53,8.6,20.78,3.18.82,3.22-2,3.22-2,1.19-4.36-4.66-26.92-21.52-33.09-.36-.14-.44-20.75.46-20.66,13.74,1.49,36.69,28.15,35.66,65.58-.6,21.68-7,58-37.19,67.39-3.91,1.22-.91,6.5-.42,6.45,8.23-.92,40.83-15.95,42-73.27.95-47.78-31.49-75.32-44.1-73.43-1.07.16-1.17,59.37-1.17,59.37,2.21,3.64,6.23,7,6.19,13s-2.71,14.17-8.6,14.86-9.75-7.32-9.54-13.56c.29-8.52,4-11.57,7.25-14.11l1.1-66.34c19.66-2,53.2,22.69,53.08,79.76-.13,55.82-31,80.9-51.31,81.14l.44-19.36c-4.85-1.36,34.17,4.09,38.12-62,1.76-29.56-17.17-56-26.57-56.15-1.18,0-1.93,5.65-.59,6.45C168,127,172.2,150.26,172.53,162.66L158.61,162c.67-6.39-3.51-18.08-6.58-21-2.26-2.16-3.6,3.59-3.58,3.56s6.62,9.26,6.6,20.24c0,14-5,22.39-10.28,27-3.18,2.76-1.67,7.06.08,6.19,4.06-2,12.77-7.28,14.34-29.23,0-.52,13,.14,13.08.7,1.69,10.87-8.09,50-35.13,51.92-11.25.81-28.91-8.66-35.1-45.42-.4-2.35-2.82-.45-3.2.73-1.23,3.86,3.8,27.94,16.21,40.77,8.83,9.14,12.33,7.67,19,10.34.67.26-.1,19.1-.1,19.1-23-1.09-49.05-31.67-48.86-81.76.18-45.45,30.07-74,37.8-74.62,1.07-.09.62,19,.06,19.37-15.25,10.37-24.13,33.75-23.75,42.53,0,.94,1.34,2.9,2.31,2.88s1.85-2.58,1.89-3.33c.67-11.62,13.72-32.87,19.27-34.34,0,0,.46,23.15-.34,24.27-5.47,7.67-6.63,15.56-7.06,24.95-.75,16.6,9.45,32.15,13.66,30.92.65-.19,1.79-2.08,1.74-3.85a4.1,4.1,0,0,0-.65-2.07c-1.58-2.65-9.2-1.94-10.37-26-.34-6.91,4.26-17,7.17-20.82.54-.71.69-49.31.86-61.18C127.69,81.82,126.56,81.84,125.84,82Z" fill="#fff"/><text transform="translate(9.82 256.62) rotate(5)" font-size="313" fill="#fff" font-family="MinionPro-Semibold, Minion Pro" font-weight="600">O</text><text transform="translate(245.91 269.48)" font-size="270" fill="#fff" font-family="MinionPro-Semibold, Minion Pro" font-weight="600">M<tspan x="240.03" y="0" letter-spacing="0em">E</tspan><tspan x="394.2" y="0">THEO</tspan></text></g></g></g></svg>